<svg width="568" height="236" viewBox="0 0 568 236" fill="none" xmlns="http://www.w3.org/2000/svg">
<path d="M558.378 -28.4177C536.842 8.39745 474.896 9.52458 489.721 103.405C506.37 208.622 409.952 253.846 344.086 227.783C278.22 201.72 282.845 105.085 157.681 102.113C29.7167 99.0773 2.79579 -22.4644 2.79579 -22.4644" stroke="#FB6542" stroke-width="2" stroke-miterlimit="10"/>
<path d="M461.942 -56.7208C461.942 -10.0773 425.762 23.4818 438.752 103.287C451.743 183.092 393.357 192.424 370.095 183.092C321.854 163.733 312.577 60.2317 234.66 53.5014C176.084 48.4696 97.3449 88.5077 55.6266 -2.35501" stroke="#FB6542" stroke-width="2" stroke-miterlimit="10"/>
<path d="M422.978 -20.9556C431.126 -7.87999 409.29 39.8578 378.459 46.3919C354.112 51.5519 313.523 -9.78073 230.042 27.4208C200.347 40.6644 80.6939 44.5851 104.814 -28.4357" stroke="#FB6542" stroke-width="2" stroke-miterlimit="10"/>
<path d="M381.242 154.798C395.072 154.798 406.284 138.292 406.284 117.931C406.284 97.5699 395.072 81.0638 381.242 81.0638C367.412 81.0638 356.2 97.5699 356.2 117.931C356.2 138.292 367.412 154.798 381.242 154.798Z" stroke="#FB6542" stroke-width="2" stroke-miterlimit="10"/>
</svg>
