<svg width="72" height="72" viewBox="0 0 72 72" fill="none" xmlns="http://www.w3.org/2000/svg">
<path fill-rule="evenodd" clip-rule="evenodd" d="M0 36C0 16.1177 16.1177 0 36 0C55.8823 0 72 16.1177 72 36C72 55.8823 55.8823 72 36 72C16.1177 72 0 55.8823 0 36ZM36.0018 16.8C30.7873 16.8 30.1329 16.8228 28.0849 16.916C26.0409 17.0096 24.6457 17.3332 23.4249 17.808C22.1621 18.2984 21.0908 18.9544 20.0236 20.022C18.9556 21.0892 18.2996 22.1605 17.8076 23.4229C17.3316 24.6441 17.0076 26.0397 16.9156 28.0829C16.824 30.1309 16.8 30.7857 16.8 36.0002C16.8 41.2147 16.8232 41.8671 16.916 43.9151C17.01 45.9591 17.3336 47.3543 17.808 48.5751C18.2988 49.8379 18.9548 50.9092 20.0224 51.9764C21.0892 53.0444 22.1605 53.702 23.4225 54.1924C24.6441 54.6672 26.0397 54.9908 28.0833 55.0844C30.1313 55.1776 30.7853 55.2004 35.9994 55.2004C41.2143 55.2004 41.8667 55.1776 43.9147 55.0844C45.9587 54.9908 47.3555 54.6672 48.5771 54.1924C49.8395 53.702 50.9092 53.0444 51.976 51.9764C53.044 50.9092 53.7 49.8379 54.192 48.5755C54.664 47.3543 54.988 45.9587 55.084 43.9155C55.176 41.8675 55.2 41.2147 55.2 36.0002C55.2 30.7857 55.176 30.1313 55.084 28.0833C54.988 26.0393 54.664 24.6441 54.192 23.4233C53.7 22.1605 53.044 21.0892 51.976 20.022C50.908 18.954 49.8399 18.298 48.5759 17.808C47.3519 17.3332 45.9559 17.0096 43.9119 16.916C41.8639 16.8228 41.2119 16.8 35.9958 16.8H36.0018Z" fill="white"/>
<path fill-rule="evenodd" clip-rule="evenodd" d="M34.2794 20.26C34.7906 20.2592 35.361 20.26 36.0018 20.26C41.1283 20.26 41.7359 20.2784 43.7603 20.3704C45.6323 20.456 46.6483 20.7688 47.3251 21.0316C48.2211 21.3796 48.8599 21.7957 49.5315 22.4677C50.2035 23.1397 50.6196 23.7797 50.9684 24.6757C51.2312 25.3517 51.5444 26.3677 51.6296 28.2397C51.7216 30.2637 51.7416 30.8717 51.7416 35.9958C51.7416 41.1199 51.7216 41.7279 51.6296 43.7519C51.544 45.6239 51.2312 46.6399 50.9684 47.3159C50.6204 48.2119 50.2035 48.8499 49.5315 49.5215C48.8595 50.1935 48.2215 50.6096 47.3251 50.9576C46.6491 51.2216 45.6323 51.5336 43.7603 51.6192C41.7363 51.7112 41.1283 51.7312 36.0018 51.7312C30.8749 51.7312 30.2673 51.7112 28.2433 51.6192C26.3713 51.5328 25.3553 51.22 24.6781 50.9572C23.7821 50.6091 23.1421 50.1931 22.4701 49.5211C21.7981 48.8491 21.382 48.2107 21.0332 47.3143C20.7704 46.6383 20.4572 45.6223 20.372 43.7503C20.28 41.7263 20.2616 41.1183 20.2616 35.991C20.2616 30.8637 20.28 30.2589 20.372 28.2349C20.4576 26.3629 20.7704 25.3469 21.0332 24.6701C21.3812 23.7741 21.7981 23.1341 22.4701 22.4621C23.1421 21.7901 23.7821 21.374 24.6781 21.0252C25.3549 20.7612 26.3713 20.4492 28.2433 20.3632C30.0145 20.2832 30.7009 20.2592 34.2794 20.2552V20.26ZM46.2507 23.4481C44.9787 23.4481 43.9467 24.4789 43.9467 25.7513C43.9467 27.0233 44.9787 28.0553 46.2507 28.0553C47.5227 28.0553 48.5547 27.0233 48.5547 25.7513C48.5547 24.4793 47.5227 23.4481 46.2507 23.4481ZM36.0018 26.1401C30.5565 26.1401 26.1417 30.5549 26.1417 36.0002C26.1417 41.4455 30.5565 45.8583 36.0018 45.8583C41.4471 45.8583 45.8603 41.4455 45.8603 36.0002C45.8603 30.5549 41.4471 26.1401 36.0018 26.1401Z" fill="white"/>
<path fill-rule="evenodd" clip-rule="evenodd" d="M36.0018 29.6001C39.5362 29.6001 42.4019 32.4654 42.4019 36.0002C42.4019 39.5346 39.5362 42.4003 36.0018 42.4003C32.467 42.4003 29.6017 39.5346 29.6017 36.0002C29.6017 32.4654 32.467 29.6001 36.0018 29.6001Z" fill="white"/>
</svg>
