<svg width="72" height="72" viewBox="0 0 72 72" fill="none" xmlns="http://www.w3.org/2000/svg">
<path fill-rule="evenodd" clip-rule="evenodd" d="M0 36C0 16.1177 16.1177 0 36 0C55.8823 0 72 16.1177 72 36C72 55.8823 55.8823 72 36 72C16.1177 72 0 55.8823 0 36ZM25.4407 29.8168H17.2824V54.3293H25.4407V29.8168ZM25.9782 22.234C25.9253 19.8306 24.2066 18 21.4156 18C18.6247 18 16.8001 19.8306 16.8001 22.234C16.8001 24.5877 18.5708 26.471 21.3097 26.471H21.3619C24.2066 26.471 25.9782 24.5877 25.9782 22.234ZM54.8629 40.2746C54.8629 32.7454 50.8381 29.2412 45.4695 29.2412C41.1379 29.2412 39.1986 31.6204 38.1158 33.2894V29.8174H29.9565C30.064 32.1176 29.9565 54.33 29.9565 54.33H38.1158V40.6402C38.1158 39.9076 38.1688 39.1768 38.3845 38.6522C38.9741 37.1887 40.3166 35.6734 42.5706 35.6734C45.5239 35.6734 46.7045 37.9211 46.7045 41.2151V54.3294H54.8626L54.8629 40.2746Z" fill="white"/>
</svg>
