<svg width="354" height="99" viewBox="0 0 354 99" fill="none" xmlns="http://www.w3.org/2000/svg">
<g opacity="0.3">
<rect width="14" height="14" fill="white"/>
<rect y="57" width="14" height="14" fill="white"/>
<rect y="28" width="14" height="14" fill="white"/>
<rect y="85" width="14" height="14" fill="white"/>
<rect x="113" width="14" height="14" fill="white"/>
<rect x="113" y="57" width="14" height="14" fill="white"/>
<rect x="113" y="28" width="14" height="14" fill="white"/>
<rect x="113" y="85" width="14" height="14" fill="white"/>
<rect x="57" width="14" height="14" fill="white"/>
<rect x="57" y="57" width="14" height="14" fill="white"/>
<rect x="57" y="28" width="14" height="14" fill="white"/>
<rect x="57" y="85" width="14" height="14" fill="white"/>
<rect x="170" width="14" height="14" fill="white"/>
<rect x="170" y="57" width="14" height="14" fill="white"/>
<rect x="170" y="28" width="14" height="14" fill="white"/>
<rect x="170" y="85" width="14" height="14" fill="white"/>
<rect x="227" width="14" height="14" fill="white"/>
<rect x="312" width="14" height="14" fill="white"/>
<rect x="227" y="57" width="14" height="14" fill="white"/>
<rect x="312" y="57" width="14" height="14" fill="white"/>
<rect x="227" y="28" width="14" height="14" fill="white"/>
<rect x="312" y="28" width="14" height="14" fill="white"/>
<rect x="227" y="85" width="14" height="14" fill="white"/>
<rect x="312" y="85" width="14" height="14" fill="white"/>
<rect x="28" width="14" height="14" fill="white"/>
<rect x="28" y="57" width="14" height="14" fill="white"/>
<rect x="28" y="28" width="14" height="14" fill="white"/>
<rect x="28" y="85" width="14" height="14" fill="white"/>
<rect x="142" width="14" height="14" fill="white"/>
<rect x="142" y="57" width="14" height="14" fill="white"/>
<rect x="142" y="28" width="14" height="14" fill="white"/>
<rect x="142" y="85" width="14" height="14" fill="white"/>
<rect x="85" width="14" height="14" fill="white"/>
<rect x="85" y="57" width="14" height="14" fill="white"/>
<rect x="85" y="28" width="14" height="14" fill="white"/>
<rect x="85" y="85" width="14" height="14" fill="white"/>
<rect x="198" width="14" height="14" fill="white"/>
<rect x="283" width="14" height="14" fill="white"/>
<rect x="198" y="57" width="14" height="14" fill="white"/>
<rect x="283" y="57" width="14" height="14" fill="white"/>
<rect x="198" y="28" width="14" height="14" fill="white"/>
<rect x="283" y="28" width="14" height="14" fill="white"/>
<rect x="198" y="85" width="14" height="14" fill="white"/>
<rect x="283" y="85" width="14" height="14" fill="white"/>
<rect x="255" width="14" height="14" fill="white"/>
<rect x="340" width="14" height="14" fill="white"/>
<rect x="255" y="57" width="14" height="14" fill="white"/>
<rect x="340" y="57" width="14" height="14" fill="white"/>
<rect x="255" y="28" width="14" height="14" fill="white"/>
<rect x="340" y="28" width="14" height="14" fill="white"/>
<rect x="255" y="85" width="14" height="14" fill="white"/>
<rect x="340" y="85" width="14" height="14" fill="white"/>
</g>
</svg>
